<?xml version="1.0" encoding="utf-8"?>
<!-- Generator: Adobe Illustrator 25.3.1, SVG Export Plug-In . SVG Version: 6.00 Build 0)  -->
<svg version="1.1" id="Layer_1" xmlns="http://www.w3.org/2000/svg" xmlns:xlink="http://www.w3.org/1999/xlink" x="0px" y="0px"
	 viewBox="0 0 664.8 199.2" style="enable-background:new 0 0 664.8 199.2;" xml:space="preserve">
<style type="text/css">
	.st0{fill:#FFFFFF;}
	.st1{fill:#FF7F00;}
</style>
<g>
	<path class="st0" d="M272.5,83.4l0,37.1c-6.8,0-12.7,0-19.1,0c-0.1-1.9-0.1-4.5-0.1-5.8c0-25.5,0-51,0-76.5c0-1.8,0-3.8,0.6-5.4
		c1.6-4,4.8-6.3,9.3-6.3c12.3,0,24.6,0,36.9,0.1c1.7,0,4.6,0.2,6.3,0.5c15.4,2.4,21.2,11.2,21.7,24.5c0.4,9.8-2.8,18.1-12.2,22.7
		c-1.5,0.6,0,0.9,0.2,1c6.5,3.1,8.8,8.8,9.2,15.5c0.4,5.8,0.5,11.6,1,17.5c0.3,3.4,1.6,8.8,2.1,12.4c-3.4,0-11.4,0-19.3,0
		c-2.1-3.5-2.5-9.1-2.7-13.1c-0.3-4.8-0.3-9.7-0.9-14.4c-0.9-6.8-3.3-9.2-10-9.5C288,83.2,280.5,83.4,272.5,83.4z M272.7,66.7
		c8.5,0,16.5,0.2,24.5-0.1c8.3-0.3,12-4.8,11.5-13c-0.4-6.7-4.6-10.8-11.8-10.9c-7.3-0.2-14.6-0.1-21.9,0c-0.8,0-1.5,0.3-2.3,0.5
		V66.7z"/>
	<path class="st0" d="M551.3,47.8h13.3c3,0,5.6,2.1,6.3,5c3.2,14.1,6.4,28,9.7,42c0.4,0,0.3,0,0.7,0c3.2-15.6,6.5-31.2,9.8-47h19.3
		c3.1,15.5,6.2,31.1,9.2,46.7c0.4,0,0.3,0,0.7,0c0.7-3,1.5-6,2.2-9c2.3-9.9,4.5-19.8,6.9-29.7c1.6-6.7,3.6-8.3,10.3-8.3
		c3.3,0,6.6,0,10.7,0c-6.6,24.2-13.6,49.3-20.1,73H612c-3.5-16.3-7.3-34-10.8-50.1c-0.4,0-0.3,0-0.7,0c-3.5,16.1-7.6,33.8-11.2,50.1
		h-18C564.9,96.9,557.9,71.9,551.3,47.8z"/>
	<path class="st0" d="M553.5,88.3h-45.3c-1.4,5.6,1.1,11.8,5.6,14.5c5,3.1,14.6,2.7,18.4-2.4c1.6-2.2,3.8-3.3,6.4-3.4
		c4.5-0.2,8.9,0,13.7,0c-0.3,5-2.7,8.8-5.3,12.3c-11.1,14.6-41.5,16.6-53.1-2c-4.9-7.8-6.1-16.5-6-25.4c0-3.6,0.5-7.3,1.3-10.9
		c3.6-17.5,17.2-26.8,35.8-24.8c18.4,2,26.6,13.9,28.4,29.6C553.9,79.6,553.5,83.6,553.5,88.3z M507.6,75.6H534
		c-0.5-9.4-5.1-14-13.6-13.9C512.7,61.9,507.9,66.9,507.6,75.6z"/>
	<path class="st0" d="M346.7,88.2c-0.9,11.5,7.6,19.6,19.7,15.4c1.9-0.7,3.4-2.5,5.2-3.7c1.6-1.1,3.3-2.7,5.1-2.8
		c4.8-0.4,9.6-0.1,14.9-0.1c-1.6,8-5.6,14-12,17.9c-11.1,6.9-23,7.6-34.9,2.4c-8.8-3.9-13.8-11.3-16.1-20.5
		c-2.2-8.9-2.3-17.8-0.3-26.7c3.6-15.3,14.3-24.1,29.9-24.3c4.1-0.1,8.3,0.6,12.3,1.5c7.9,1.8,13.6,6.6,17.6,13.7
		c3.3,5.7,5.9,18.6,4,27.1H346.7z M346.7,75.9c4.7,0,9,0,13.3,0c4.4,0,8.8,0,13.3-0.1c-1.2-10.4-5.7-14.6-14.4-14.1
		C351.4,62.2,346.8,67.3,346.7,75.9z"/>
	<path class="st0" d="M465,120.5l0-41c6.1-6.4,12-12.6,18.4-19.2l0,60.2C477.4,120.5,471.5,120.5,465,120.5z"/>
	<path class="st0" d="M465,69.9V46.3h23.2C480.6,54.5,473,61.7,465,69.9z"/>
</g>
<path class="st1" d="M388.2,49.7l20-0.1l13.7,39.9c0,0,8.5-38.2,38.2-61.6c30-23.6,55.1-18.3,71.2-18c0,0-55.3-3.2-80.7,56.1
	c0,0-11.2,21.6-17.6,54.7l-19.5,0.2L388.2,49.7z"/>
<g>
	<g>
		<path class="st1" d="M42.8,112.2V47H16V35.6c0-4.7,3.8-8.6,8.6-8.6h69.2v9c0,6.1-4.9,11-11,11h-16v73.5H51
			C46.5,120.5,42.8,116.8,42.8,112.2z"/>
		<path class="st1" d="M85.3,74.6c0-31.7,16.5-50.7,45.9-50.7c29.6,0,45.7,19,45.7,51.1c0,32.1-16.2,48.7-45.7,48.7
			C101.8,123.7,85.3,106.1,85.3,74.6z M153.3,75c0-19.8-7.9-29.8-22.1-29.8s-22.2,10-22.2,29.8c0,20,8.3,28,22.2,28
			C142.6,103,153.3,94.9,153.3,75z"/>
		<path class="st1" d="M178.2,120.5V37.5c0-5.8,4.7-10.5,10.5-10.5l32,0c16.7,0,30.6,13.5,30.4,30.3c-0.2,19.2-12,29.1-31.4,29.1
			h-17.4v27.4c0,3.7-3,6.6-6.6,6.6H178.2z M218.1,67.4c7.5,0,12-4.1,12-10.4c0-6.1-4.5-10.1-12-10.1h-15.8v20.5H218.1z"/>
	</g>
</g>
<g>
	<path class="st0" d="M415,166.1c-2.1,11.1-9.9,18.5-21.3,18.5c-12.9,0-22.8-8.8-22.8-25.5c0-16.5,8.8-26.6,22.9-26.6
		c12.4,0,20.2,7.8,21.2,17.6l-7.6,0c-2.1,0-4-1.2-5-3c-1.8-3.1-5-4.8-8.5-4.8c-7.9,0-11.5,6.1-11.5,16.1c0,10.1,3.4,16.3,11,16.3
		c4.5,0,7.4-1.9,9.1-5.2c1-2.1,3.2-3.3,5.5-3.3L415,166.1z"/>
	<path class="st0" d="M453.6,179.8L453.6,179.8c-1.8,2.4-5.4,4-10.8,4c-8.3,0-12-4-12-10.4c0-9.4,7.1-11.2,16.8-12.6
		c4.1-0.6,5.3-1.4,5.3-3.7c0-2.1-2.4-3.2-5.4-3.2c-2.8,0-4.4,0.9-5.2,2.3c-0.8,1.4-2.4,2.3-4,2.3l-6.3,0c0.1-7.5,4.3-12.7,16.1-12.7
		c11.6,0,15.6,5.1,15.6,14.3v22.9h-6.8C455.2,182.9,453.7,181.5,453.6,179.8z M453.1,165.9c-0.8,0.7-2.2,1.2-5.3,1.8
		c-5.1,1.1-6.5,2.5-6.5,5.1c0,2.3,1.4,3.5,3.9,3.5c5.1,0,7.8-3.5,7.9-7.3L453.1,165.9z"/>
	<path class="st0" d="M505.7,157.7c-1.1,0-2-0.7-2.3-1.7c-0.7-1.9-2.3-3-5.5-3c-3.5,0-5.2,1.3-5.2,3c0,1.9,2.1,2.8,5.1,3.6
		c3.5,0.9,7.7,1.7,11.3,3.4c3.4,1.6,5.7,4,5.7,9c0,7.1-4.7,11.8-15.9,11.8c-10.6,0-16.7-4.3-17.6-11.2c-0.1-0.7,0.5-1.4,1.2-1.4h7.1
		c1.2,0,2.3,0.8,2.8,1.9c0.9,1.8,3.1,3,6.5,3c3,0,5.4-1,5.4-3.4c0-1.9-1.5-2.6-4.8-3.4c-6.2-1.5-8.2-2.1-10.7-3.3
		c-4.9-2.4-6.5-5.9-6.5-9.6c0-5.9,4-10.7,15.6-10.7c9.9,0,14.6,3.6,15.5,10.5c0.1,0.7-0.5,1.4-1.2,1.4L505.7,157.7z"/>
	<path class="st0" d="M584.3,182.9v-22.4c0-4.6-1.7-6-5.5-6c-4.2,0-6.3,2.1-6.3,6.6v18.2c0,2-1.6,3.6-3.6,3.6h-7v-32.3
		c0-2.1,1.7-3.9,3.9-3.9h6.3v4.6c2.1-3.8,5.7-5.6,11.2-5.5c6.6,0.1,11.9,5.7,11.9,12.3l0,20.8c0,2.2-1.8,4-4,4H584.3z"/>
	<path class="st0" d="M612.9,164.8c0-11.5,7.2-19,18.8-19c11.5,0,18.6,7.5,18.6,19c0,11.5-7.2,19-18.6,19
		C619.9,183.9,612.9,176.1,612.9,164.8z M639.6,164.8c0-6.9-2.6-10-7.9-10c-5.3,0-7.9,3.1-7.9,10s2.6,10.1,7.9,10.1
		C637.1,175,639.6,171.7,639.6,164.8z"/>
</g>
<rect x="16.1" y="153.3" class="st1" width="341.7" height="10.4"/>
<path class="st0" d="M532.3,182.9l0-23.6c3.5-3.7,6.9-7.2,10.6-11l0,34.6C539.5,182.9,536.1,182.9,532.3,182.9z"/>
<path class="st1" d="M532.3,153.8v-13.6h13.3C541.3,145,536.9,149.1,532.3,153.8z"/>
</svg>
